<svg width="160" height="25" viewBox="0 0 160 25" fill="none" xmlns="http://www.w3.org/2000/svg">
<g id="Group 24">
<g id="Group 23">
<g id="Group 22">
<g id="Group">
<path id="Vector" d="M45.8529 0.226562L50.4018 7.23248L58.4705 9.39373L53.2131 15.885L53.651 24.2266L45.8529 21.2324L38.0549 24.2266L38.4927 15.885L33.2354 9.39373L41.3041 7.23248L45.8529 0.226562Z" fill="#F85559"/>
</g>
<g id="Group_2">
<path id="Vector_2" d="M45.9043 0.226562L50.4532 7.23248L58.5219 9.39373L53.2645 15.885L53.7023 24.2266L45.9043 21.2324V0.226562Z" fill="#FBC0A8"/>
</g>
</g>
<g id="Group_3">
<path id="Vector_3" d="M12.6176 0.226562L17.1664 7.23248L25.2351 9.39373L19.9778 15.885L20.4156 24.2266L12.6176 21.2324L4.81952 24.2266L5.25735 15.885L0 9.39373L8.06871 7.23248L12.6176 0.226562Z" fill="#F85559"/>
</g>
<g id="Group_4">
<path id="Vector_4" d="M79.6176 0.226562L84.1664 7.23248L92.2351 9.39373L86.9778 15.885L87.4156 24.2266L79.6176 21.2324L71.8195 24.2266L72.2574 15.885L67 9.39373L75.0687 7.23248L79.6176 0.226562Z" fill="#FBC0A8"/>
</g>
<g id="Group_5">
<path id="Vector_5" d="M146.618 0.226562L151.166 7.23248L159.235 9.39373L153.978 15.885L154.416 24.2266L146.618 21.2324L138.82 24.2266L139.257 15.885L134 9.39373L142.069 7.23248L146.618 0.226562Z" fill="#FBC0A8"/>
</g>
<g id="Group_6">
<path id="Vector_6" d="M113.618 0.226562L118.166 7.23248L126.235 9.39373L120.978 15.885L121.416 24.2266L113.618 21.2324L105.82 24.2266L106.257 15.885L101 9.39373L109.069 7.23248L113.618 0.226562Z" fill="#FBC0A8"/>
</g>
</g>
</g>
</svg>
